#!OML:ASF F:\VICON\USERDATA\INSTALL\rory3\rory3.ASF
:FULLY-SPECIFIED
:DEGREES
2010
root 1.05538 17.5098 1.86392 57.1001 53.9223 19.7796
lowerback 34.2032 9.66138 5.08138
upperback 8.14399 14.066 1.26623
thorax -7.22153 6.65194 -6.21293
lowerneck -15.5515 -6.85981 -6.85942
upperneck 14.7476 -8.98239 7.52191
head 7.76658 -3.93993 2.55813
rclavicle -5.08889e-014 2.54444e-014
rhumerus 41.7491 -27.0615 -28.0352
rradius 17.8523
rwrist 17.6574
rhand 0.877151 2.33201
rfingers 7.12502
rthumb 26.4303 -25.8453
lclavicle -5.08889e-014 2.54444e-014
lhumerus -53.7593 20.4028 -5.00723
lradius 13.2532
lwrist -9.68886
lhand -18.1829 28.1134
lfingers 7.12502
lthumb 8.09383 57.9384
rfemur -23.7901 6.88068 -6.64365
rtibia 21.2148
rfoot -52.8669 -36.2922
rtoes 6.90858
lfemur -79.2383 -23.0086 -0.977192
ltibia 27.3685
lfoot 4.94724 -8.16363
ltoes -9.4866
2011
root 1.06947 17.487 1.8547 58.0357 54.0179 20.3128
lowerback 34.4499 9.59134 5.31359
upperback 8.15558 14.0691 1.33742
thorax -7.26789 6.64388 -6.28092
lowerneck -15.3117 -6.95175 -7.19348
upperneck 14.5555 -9.07426 7.75502
head 7.69649 -3.98975 2.68322
rclavicle 9.85972e-014 2.54444e-014
rhumerus 41.4098 -26.4054 -27.7642
rradius 17.7722
rwrist 17.2865
rhand 1.55137 2.43243
rfingers 7.12502
rthumb 27.0755 -25.6463
lclavicle 9.85972e-014 2.54444e-014
lhumerus -54.9073 21.7785 -7.6427
lradius 12.9728
lwrist -12.1484
lhand -18.2183 28.8026
lfingers 7.12502
lthumb 8.05965 58.629
rfemur -24.0534 6.59815 -6.90541
rtibia 21.2451
rfoot -52.9654 -36.5068
rtoes 6.67971
lfemur -79.9302 -23.0696 -1.06458
ltibia 27.4878
lfoot 5.07127 -8.38847
ltoes -9.50156
2012
root 1.08404 17.4621 1.86215 59.2551 54.4017 20.7366
lowerback 34.2747 9.59385 5.50456
upperback 8.1217 14.1477 1.55505
thorax -7.24414 6.67274 -6.15745
lowerneck -15.1987 -7.00947 -7.34751
upperneck 14.389 -9.12991 7.84016
head 7.63825 -4.02285 2.73203
rclavicle 5.725e-014 -4.13472e-014
rhumerus 40.739 -25.3589 -27.0009
rradius 17.9692
rwrist 16.2312
rhand 1.18988 1.54547
rfingers 7.12502
rthumb 26.7296 -26.5865
lclavicle 5.725e-014 -4.13472e-014
lhumerus -55.5563 22.015 -8.66786
lradius 12.886
lwrist -12.2429
lhand -18.5511 30.0489
lfingers 7.12502
lthumb 7.73848 59.8873
rfemur -24.6081 6.52089 -6.92024
rtibia 21.2578
rfoot -53.5237 -36.9719
rtoes 6.35709
lfemur -81.0207 -23.0083 -0.67357
ltibia 27.5724
lfoot 5.22934 -8.58987
ltoes -9.39373
2013
root 1.09793 17.4434 1.86855 60.1209 54.5197 21.1038
lowerback 34.4259 9.70125 5.48524
upperback 8.17024 14.2853 1.68162
thorax -7.26753 6.72946 -6.07746
lowerneck -15.2243 -7.06125 -7.18069
upperneck 14.2117 -9.22685 7.84022
head 7.58428 -4.06272 2.69293
rclavicle 9.54166e-015 4.77083e-015
rhumerus 40.6182 -25.1936 -27.4299
rradius 17.9324
rwrist 16.1697
rhand 1.10403 0.11548
rfingers 7.12502
rthumb 26.6474 -28.029
lclavicle 9.54166e-015 4.77083e-015
lhumerus -56.1233 22.5134 -9.91471
lradius 12.7508
lwrist -12.3607
lhand -19.0147 30.9166
lfingers 7.12502
lthumb 7.29097 60.771
rfemur -24.9576 6.60088 -7.11277
rtibia 21.2803
rfoot -54.217 -37.1235
rtoes 6.32461
lfemur -81.6479 -22.9295 -0.69638
ltibia 27.6184
lfoot 5.35227 -8.82538
ltoes -9.1323
2014
root 1.11277 17.4287 1.86949 60.7563 54.4857 21.4544
lowerback 34.7902 9.75551 5.51155
upperback 8.25128 14.3693 1.70438
thorax -7.30342 6.76272 -6.12935
lowerneck -15.1616 -7.09188 -6.95987
upperneck 13.9395 -9.29488 7.7705
head 7.47523 -4.09698 2.62904
rclavicle -3.49861e-014 4.77083e-014
rhumerus 40.939 -25.6428 -28.7172
rradius 17.6457
rwrist 17.1757
rhand -0.475639 -1.08765
rfingers 7.12502
rthumb 25.1347 -29.4531
lclavicle -3.49861e-014 4.77083e-014
lhumerus -56.9949 23.4851 -12.0001
lradius 12.5914
lwrist -13.4169
lhand -18.9204 31.0119
lfingers 7.12502
lthumb 7.38197 60.8631
rfemur -25.1199 6.56279 -7.367
rtibia 21.2582
rfoot -54.601 -37.2216
rtoes 6.04604
lfemur -81.9792 -22.8762 -0.992595
ltibia 27.6498
lfoot 5.41982 -9.12869
ltoes -8.95602
2015
root 1.12697 17.4039 1.86549 61.7454 54.599 21.9553
lowerback 34.8709 9.70504 5.72924
upperback 8.30229 14.3776 1.71372
thorax -7.23059 6.76939 -6.22608
lowerneck -15.134 -7.09959 -6.91031
upperneck 13.7348 -9.33003 7.90383
head 7.41103 -4.10429 2.66189
rclavicle 9.85972e-014 -1.19271e-013
rhumerus 40.9854 -25.8243 -29.5207
rradius 17.4778
rwrist 17.8241
rhand -3.10662 -2.10786
rfingers 7.12502
rthumb 22.6116 -30.8035
lclavicle 9.85972e-014 -1.19271e-013
lhumerus -57.6486 24.0231 -13.4804
lradius 12.4784
lwrist -13.9421
lhand -18.3883 30.915
lfingers 7.12502
lthumb 7.8956 60.7476
rfemur -25.4316 6.42935 -7.62268
rtibia 21.242
rfoot -55.2525 -37.1593
rtoes 6.50657
lfemur -82.6983 -22.9239 -0.92438
ltibia 27.6457
lfoot 5.53652 -9.2642
ltoes -8.62286
2016
root 1.13903 17.3813 1.86379 62.6825 54.6313 22.4432
lowerback 35.0446 9.80381 5.8504
upperback 8.34515 14.5389 1.73202
thorax -7.20644 6.84161 -6.33025
lowerneck -15.1845 -7.18825 -6.90466
upperneck 13.5939 -9.49895 8.2492
head 7.40566 -4.15467 2.75171
rclavicle 3.18055e-015 -7.79236e-014
rhumerus 40.6187 -25.9627 -29.8424
rradius 17.3599
rwrist 18.0033
rhand -3.50252 -2.396
rfingers 7.12502
rthumb 22.2316 -31.1374
lclavicle 3.18055e-015 -7.79236e-014
lhumerus -57.5858 24.0679 -13.8187
lradius 12.3881
lwrist -13.3995
lhand -18.2209 31.262
lfingers 7.12502
lthumb 8.05716 61.0884
rfemur -25.7617 6.49534 -7.97669
rtibia 21.2514
rfoot -56.0446 -37.1517
rtoes 6.79711
lfemur -83.238 -22.8501 -1.18755
ltibia 27.5969
lfoot 5.71979 -9.62203
ltoes -8.44751
2017
root 1.1484 17.3588 1.86311 63.725 54.3432 23.1503
lowerback 35.287 9.93839 5.565
upperback 8.4247 14.6093 1.75432
thorax -7.26756 6.8682 -6.21919
lowerneck -15.2365 -7.27759 -7.0268
upperneck 13.4609 -9.61643 8.44577
head 7.3976 -4.20135 2.81934
rclavicle 0 3.02153e-014
rhumerus 40.4131 -25.8641 -30.0498
rradius 17.255
rwrist 17.9057
rhand -3.08576 -2.84808
rfingers 7.12502
rthumb 22.6317 -31.5412
lclavicle 0 3.02153e-014
lhumerus -58.0079 24.5098 -14.801
lradius 12.2884
lwrist -13.5068
lhand -18.4058 31.6344
lfingers 7.12502
lthumb 7.8787 61.4676
rfemur -26.0531 6.47948 -8.64353
rtibia 21.2623
rfoot -56.698 -37.2335
rtoes 6.97459
lfemur -83.5938 -22.7565 -2.00549
ltibia 27.5166
lfoot 5.92583 -10.0681
ltoes -8.16666
2018
root 1.15807 17.3399 1.86369 64.5887 54.1593 23.6799
lowerback 35.5117 9.92154 5.38111
upperback 8.50618 14.5344 1.81015
thorax -7.32163 6.82814 -6.0726
lowerneck -15.2449 -7.25809 -7.23742
upperneck 13.4016 -9.55616 8.53932
head 7.39027 -4.17703 2.89085
rclavicle -6.67916e-014 9.22361e-014
rhumerus 40.8423 -25.9357 -30.9759
rradius 17.0067
rwrist 18.5001
rhand -1.67027 -2.2674
rfingers 7.12502
rthumb 23.9896 -30.7884
lclavicle -6.67916e-014 9.22361e-014
lhumerus -58.8161 24.5988 -15.7884
lradius 12.2992
lwrist -13.2588
lhand -18.4941 31.4354
lfingers 7.12502
lthumb 7.79341 61.2718
rfemur -26.3275 6.56098 -9.14003
rtibia 21.26
rfoot -57.4243 -37.4342
rtoes 7.34751
lfemur -83.9876 -22.7386 -2.37974
ltibia 27.418
lfoot 6.02976 -10.2427
ltoes -7.66297
2019
root 1.16985 17.3254 1.86533 65.2835 54.1912 23.9877
lowerback 35.6849 9.86432 5.47641
upperback 8.58334 14.5063 1.89374
thorax -7.30209 6.81329 -6.03498
lowerneck -15.1776 -7.21933 -7.3614
upperneck 13.2524 -9.48109 8.59333
head 7.33275 -4.14864 2.93995
rclavicle -4.45278e-014 3.33958e-014
rhumerus 40.9165 -25.6555 -31.3125
rradius 16.8403
rwrist 18.4236
rhand -1.61126 -1.79911
rfingers 7.12502
rthumb 24.0462 -30.3127
lclavicle -4.45278e-014 3.33958e-014
lhumerus -59.3059 24.3945 -16.1763
lradius 12.355
lwrist -12.4172
lhand -18.7023 31.326
lfingers 7.12502
lthumb 7.59248 61.1697
rfemur -26.6045 6.79434 -9.41944
rtibia 21.2503
rfoot -58.3866 -37.4051
rtoes 7.99269
lfemur -84.4356 -22.7278 -2.33023
ltibia 27.3224
lfoot 6.1466 -10.3241
ltoes -7.47189
2020
root 1.18052 17.3117 1.86585 66.063 54.1743 24.3314
lowerback 35.8684 9.89414 5.53967
upperback 8.57085 14.5742 1.94208
thorax -7.25768 6.8432 -6.0029
lowerneck -15.1339 -7.27517 -7.46973
upperneck 13.0977 -9.54855 8.72689
head 7.29325 -4.17935 2.99382
rclavicle 9.54166e-014 -1.03368e-013
rhumerus 41.0547 -25.8625 -32.0281
rradius 16.5771
rwrist 19.0271
rhand -3.81884 -2.91192
rfingers 7.12502
rthumb 21.9279 -31.6892
lclavicle 9.54166e-014 -1.03368e-013
lhumerus -59.7154 24.7637 -16.9747
lradius 12.3307
lwrist -12.412
lhand -18.9233 31.5486
lfingers 7.12502
lthumb 7.37921 61.3999
rfemur -26.9279 6.95151 -9.74225
rtibia 21.2288
rfoot -59.3166 -37.3645
rtoes 8.5435
lfemur -84.9345 -22.689 -2.37303
ltibia 27.2443
lfoot 6.21651 -10.5146
ltoes -7.61895
